# xmcd CD database file
#
# Track frame offsets:
#	150
#	18241
#	39200
#	58921
#	73701
#	92242
#	113516
#	133666
#	151049
#	169545
#
# Disc length: 2608 seconds
#
# Revision: 6
# Processed by: cddbd v1.5.2PL0 Copyright (c) Steve Scherf et al.
# Submitted via: CDex 2.21
#
DISCID=750a2e0a
DTITLE=Brandi Carlile - By The Way, I Forgive You
DYEAR=2018
DGENRE=Country
TTITLE0=Every Time I Hear That Song
TTITLE1=The Joke
TTITLE2=Hold Out Your Hand
TTITLE3=The Mother
TTITLE4=Whatever You Do
TTITLE5=Fulton County Jane Doe
TTITLE6=Sugartooth
TTITLE7=Most Of All
TTITLE8=Harder To Forgive
TTITLE9=Party Of One
EXTD=YEAR: 2018
EXTT0=
EXTT1=
EXTT2=
EXTT3=
EXTT4=
EXTT5=
EXTT6=
EXTT7=
EXTT8=
EXTT9=
PLAYORDER=
